<svg width="32" height="32" viewBox="0 0 32 32" fill="none" xmlns="http://www.w3.org/2000/svg">
  <rect width="32" height="32" rx="8" fill="#F3ECE0"/>
  <path d="M16 6C10.477 6 6 10.477 6 16C6 21.523 10.477 26 16 26C21.523 26 26 21.523 26 16C26 10.477 21.523 6 16 6ZM16 24C11.582 24 8 20.418 8 16C8 11.582 11.582 8 16 8C20.418 8 24 11.582 24 16C24 20.418 20.418 24 16 24Z" fill="#F27A94"/>
  <path d="M16 10C13.791 10 12 11.791 12 14C12 16.209 13.791 18 16 18C18.209 18 20 16.209 20 14C20 11.791 18.209 10 16 10ZM16 16C14.895 16 14 15.105 14 14C14 12.895 14.895 12 16 12C17.105 12 18 12.895 18 14C18 15.105 17.105 16 16 16Z" fill="#F27A94"/>
  <path d="M18 20H14C13.448 20 13 20.448 13 21C13 21.552 13.448 22 14 22H18C18.552 22 19 21.552 19 21C19 20.448 18.552 20 18 20Z" fill="#F27A94"/>
</svg>